<?xml version="1.0" standalone="no"?>
<!DOCTYPE svg PUBLIC "-//W3C//DTD SVG 20010904//EN"
 "http://www.w3.org/TR/2001/REC-SVG-20010904/DTD/svg10.dtd">
<svg version="1.0" xmlns="http://www.w3.org/2000/svg"
 width="600.000000pt" height="600.000000pt" viewBox="0 0 600.000000 600.000000"
 preserveAspectRatio="xMidYMid meet">
<metadata>
Created by potrace 1.14, written by Peter Selinger 2001-2017
</metadata>
<g transform="translate(0.000000,600.000000) scale(0.100000,-0.100000)"
fill="#000000" stroke="none">
<path d="M0 3000 l0 -3000 493 1 492 0 -90 19 c-344 73 -581 269 -651 541 -22
83 -22 234 0 319 79 309 364 586 735 714 177 62 283 79 471 79 91 0 186 -5
213 -10 l47 -10 0 1763 c0 970 3 1764 6 1764 7 0 3842 782 3944 804 57 12
-304 14 -2797 15 l-2863 1 0 -3000z"/>
<path d="M5777 3773 c-3 -2509 5 -2270 -82 -2448 -151 -311 -509 -551 -925
-620 -151 -26 -400 -17 -535 19 -225 59 -398 173 -504 332 -108 161 -136 369
-75 559 96 297 387 562 748 679 161 53 268 69 446 69 91 0 186 -5 213 -10 l47
-10 0 1193 0 1194 -32 -7 c-18 -4 -631 -129 -1363 -278 l-1330 -271 -5 -1665
-5 -1664 -23 -75 c-116 -375 -492 -669 -967 -754 -71 -13 195 -14 2268 -15
l2347 -1 0 3000 0 3000 -110 0 -110 0 -3 -2227z"/>
</g>
</svg>
